<svg width="124" height="48" xmlns="http://www.w3.org/2000/svg"><g fill="none"><path d="M2.884 41.775h.597l2.58 5.7h-.687l-.664-1.497H1.632l-.67 1.496H.307l2.577-5.7zm1.576 3.62l-1.286-2.877-1.294 2.877h2.58zm2.46-3.581h.6l3.566 4.535v-4.535h.626v5.66h-.51L7.55 42.833v4.641h-.627zm75.44 2.791v-.015c0-1.6 1.195-2.922 2.86-2.922a2.956 2.956 0 012.209.898l-.44.463a2.465 2.465 0 00-1.78-.776c-1.253 0-2.192 1.018-2.192 2.32v.017c0 1.308.948 2.335 2.191 2.335.777 0 1.286-.298 1.829-.816l.417.418a2.945 2.945 0 01-2.262.993c-1.628-.004-2.832-1.29-2.832-2.915zm5.586 0v-.015a2.886 2.886 0 015.773-.017v.017a2.886 2.886 0 01-5.773.015zm5.11 0v-.015c0-1.286-.938-2.337-2.232-2.337-1.294 0-2.214 1.043-2.214 2.32v.017c0 1.285.937 2.335 2.231 2.335 1.294 0 2.214-1.035 2.214-2.32zm1.825-2.845h.647l2.062 3.089 2.062-3.089h.647v5.66h-.638v-4.591l-2.062 3.032h-.034l-2.06-3.024v4.583h-.626zm6.871 0h2.118c1.277 0 2.118.678 2.118 1.795v.016c0 1.221-1.02 1.852-2.225 1.852h-1.373v1.997h-.638v-5.66zm2.037 3.08c.937 0 1.552-.5 1.552-1.252v-.017c0-.807-.607-1.227-1.521-1.227h-1.43v2.49l1.399.006zm4.695-3.122h.6l2.579 5.702h-.69l-.669-1.503h-3.072l-.672 1.497h-.664l2.588-5.696zm1.578 3.623l-1.286-2.878-1.294 2.878h2.58zm2.456-3.581h.6l3.564 4.535V41.76h.626v5.66h-.51l-3.658-4.633v4.633h-.626zm7.954 3.418l-2.352-3.418h.776l1.901 2.83 1.924-2.83h.745l-2.354 3.412v2.248h-.647zm-82.83-3.453h4.3v1.114h-3.054v1.156h2.686v1.117h-2.686v1.195h3.093v1.115h-4.339zm5.262 0h1.352l1.498 2.408 1.499-2.408h1.35v5.697h-1.252v-3.719l-1.603 2.433h-.033l-1.588-2.41v3.696h-1.23zm6.841 0h2.329c1.358 0 2.18.805 2.18 1.97v.016c0 1.32-1.024 2.002-2.295 2.002h-.952v1.709h-1.252l-.01-5.697zm2.247 2.873c.626 0 .994-.375.994-.864v-.016c0-.562-.393-.862-1.019-.862H51v1.742h.993zm2.688-.008v-.017c0-1.62 1.28-2.947 3.039-2.947 1.76 0 3.02 1.311 3.02 2.922v.017c0 1.62-1.28 2.947-3.037 2.947s-3.022-1.303-3.022-2.922zm4.748 0v-.017a1.73 1.73 0 00-1.726-1.79 1.703 1.703 0 00-1.709 1.774v.016a1.73 1.73 0 001.726 1.79 1.705 1.705 0 001.71-1.773zm1.386-2.865h1.34l1.181 3.817 1.277-3.817h1.09l1.279 3.817 1.181-3.817h1.296l-1.947 5.697h-1.092l-1.285-3.671-1.286 3.67h-1.091zm9.222 0h4.3v1.114h-3.054v1.156h2.686v1.117h-2.686v1.195h3.095v1.115h-4.34zm5.266 0h2.606c.724 0 1.286.208 1.67.578.332.35.508.82.488 1.302v.017a1.77 1.77 0 01-1.22 1.765l1.391 2.035h-1.46L77.554 45.6h-1.001v1.822h-1.252v-5.697zm2.525 2.767c.61 0 .96-.326.96-.806v-.016c0-.537-.374-.814-.985-.814H76.55v1.636h1.277z" fill="#FFF"/><path d="M35.78 41.743c-5.79 1.365-5.742-1.504-10.643-.901l-2.504 1.166c5.163-.916 5.274 2.597 12.25.626.318-.091.627-.177.912-.252l-.014-.639z" fill="#DB1830"/><path d="M35.78 43.096c-1.027.13-2.042.34-3.038.626-7.346 2.064-7.148-1.353-12.57-.568l-2.504 1.169c5.307-.718 5.524 2.602 12.73.626 2.353-.647 4.018-.835 5.38-.743l.003-1.11z" fill="#DB1830"/><path d="M35.78 45.635c-1.792-.404-3.87-.644-7.633.389-7.453 2.045-7.334-1.303-12.927-.566l-2.504 1.167c5.426-.697 5.691 2.581 13.041.626 5.451-1.461 7.334-.397 10.018.163l.006-1.779z" fill="#DB1830"/><path d="M6.397 8.352c1.45-2.191 2.665-2.922 4.766-2.922 3.494 0 5.624 2.843 5.624 7.49 0 4.648-2.16 7.328-5.862 7.328-1.154 0-2.279-.326-3.02-.858-.503-.386-.916-.948-1.45-1.956v4.713c0 1.48.238 1.688 1.985 1.747h.68v2.197H0V23.9h.682c1.361-.059 1.539-.267 1.539-1.747V9.8c0-1.48-.178-1.686-1.539-1.746H0V5.862h6.397v2.49zm.799.712c-.564.857-.77 1.895-.77 3.787 0 1.985.177 2.843.799 3.703a2.438 2.438 0 002.072 1.043c1.925 0 2.843-1.538 2.843-4.8 0-3.262-.918-4.885-2.813-4.885a2.344 2.344 0 00-2.131 1.15v.002zm25.114 5.918c-.208 1.57-.503 2.28-1.252 3.13-1.215 1.422-3.107 2.16-5.447 2.16-4.47 0-7.373-2.842-7.373-7.283 0-4.618 2.932-7.696 7.344-7.696 2.16 0 4.115.799 5.299 2.19 1.183 1.393 1.659 2.843 1.717 5.803H22.92c.058 1.688.209 2.429.739 3.228.53.8 1.363 1.183 2.548 1.183 1.834 0 2.753-.77 3.226-2.713l2.878-.002zm-4.174-3.938c-.029-1.273-.148-1.834-.503-2.398-.444-.65-1.156-1.006-2.074-1.006-.918 0-1.628.355-2.041 1.006-.357.564-.474 1.125-.505 2.398h5.123zM39.677 7.67c1.006-1.57 2.073-2.192 3.671-2.192 1.985 0 3.316 1.252 3.316 3.13 0 1.57-1.043 2.695-2.546 2.695-1.185 0-2.072-.8-2.072-1.895 0-.947.474-1.54 1.57-1.924a1.81 1.81 0 00-.89-.267 2.694 2.694 0 00-2.13 1.183c-.652.889-.86 1.807-.86 3.85v3.548c0 1.45.177 1.689 1.51 1.747h1.361v2.191h-9.391v-2.191h.74c1.332-.058 1.51-.265 1.541-1.747v-6.01c-.031-1.48-.209-1.686-1.54-1.747h-.741V5.85h6.461v1.82zm9.801 12.285h-2.044V14.53h2.31c.533 1.48.919 2.014 1.837 2.636.773.54 1.7.816 2.642.787 1.45 0 2.34-.593 2.34-1.511 0-.417-.178-.71-.626-.977-.503-.325-.593-.354-3.548-1.095a11.635 11.635 0 01-3.325-1.426 3.506 3.506 0 01-1.688-3.078c0-2.636 2.458-4.53 5.862-4.53 1.718 0 2.843.325 4.5 1.251l.444-.86h1.985v4.738h-1.978c-.858-1.302-1.361-1.834-2.131-2.279a5.13 5.13 0 00-2.34-.626c-1.183 0-1.953.532-1.953 1.363-.013.354.142.693.417.916.445.386.626.444 2.784.979 1.835.473 2.99.857 3.878 1.302a3.907 3.907 0 012.058 3.537c0 2.695-2.43 4.619-5.833 4.619-1.779 0-3.168-.384-5.093-1.421l-.498 1.101zm28.72-7.135c0 4.473-3.13 7.432-7.905 7.432-4.915 0-7.993-2.922-7.993-7.55 0-4.383 3.197-7.343 7.964-7.343 4.766 0 7.934 2.932 7.934 7.461zm-11.244-.085c0 3.547 1.066 5.24 3.316 5.24 2.191 0 3.287-1.688 3.287-5.182 0-3.494-1.096-5.15-3.287-5.15s-3.316 1.713-3.316 5.092zm21.756 4.823h.532c1.305-.059 1.482-.265 1.482-1.747v-5.218c0-1.124-.09-1.538-.386-1.982-.296-.445-.887-.741-1.599-.741-1.834 0-3.078 1.54-3.078 3.819v4.116c0 1.481.178 1.688 1.51 1.746h.502v2.192H79V17.55h.857c1.363-.058 1.54-.265 1.57-1.746v-6.01c-.03-1.48-.209-1.687-1.57-1.748H79v-2.19h6.571v2.496c1.954-2.31 3.02-2.922 4.976-2.922 1.39 0 2.663.443 3.404 1.213.74.77 1.006 1.807 1.006 3.909v5.27c0 1.481.208 1.688 1.688 1.746h.626v2.191h-8.557l-.004-2.201zm25.434-1.57c0 1.689-.209 2.459-.8 3.168-.65.712-1.627 1.096-2.871 1.096-1.805 0-2.665-.532-3.435-2.102-1.657 1.57-2.901 2.131-4.767 2.131-2.723 0-4.47-1.538-4.47-3.965a3.523 3.523 0 011.46-2.922c.89-.593 2.073-1.008 4.235-1.46 2.457-.506 3.287-1.126 3.287-2.547 0-1.421-1.156-2.369-2.921-2.369-1.067 0-1.657.21-2.37.835 1.097.148 1.67.71 1.67 1.689 0 1.043-1.008 1.863-2.28 1.863-1.422 0-2.399-.916-2.399-2.25 0-2.308 2.459-3.79 6.366-3.79 2.133 0 3.731.445 4.827 1.303.977.8 1.183 1.46 1.183 3.821v5.714c0 .916.238 1.36.77 1.36s.77-.417.77-1.36v-1.57h1.776l-.031 1.355zm-7.49-3.253c-.77.384-1.48.71-1.718.799-1.392.59-1.776.8-2.101 1.183a1.763 1.763 0 00-.503 1.252c0 1.006.651 1.628 1.686 1.628 1.688 0 2.636-1.043 2.636-2.842v-2.02zm14.419 3.075c0 1.483.18 1.69 1.51 1.748h.89v2.19h-9.062v-2.19h.86c1.36-.059 1.538-.265 1.57-1.747V3.938c-.032-1.48-.21-1.688-1.57-1.747h-.86V.004h6.662v15.807z" fill="#00CFFF"/><path d="M53.79 29.77a5.27 5.27 0 015.267-5.296 5.155 5.155 0 014.228 2.151l-1.597 1.159a3.045 3.045 0 00-2.556-1.338c-1.878 0-3.252 1.473-3.252 3.324 0 1.852 1.355 3.356 3.237 3.356a3.026 3.026 0 002.571-1.354l1.597 1.173a5.195 5.195 0 01-4.228 2.151 5.276 5.276 0 01-5.268-5.326zm18.659 2.71h-3.882l-.835 2.483h-2.22l3.867-10.368h2.256l3.852 10.368H73.29l-.841-2.484zm-.626-1.82l-1.321-3.899-1.309 3.898h2.63zm14.362-2.68c0 1.7-1.043 3.356-3.385 3.356h-2.137v3.627h-2.087V24.595h4.228c2.344 0 3.381 1.686 3.381 3.385zm-2.106 0c0-.751-.375-1.534-1.354-1.534h-2.062v3.053h2.033c1.008 0 1.383-.782 1.383-1.52zm5.687-3.385h2.087v10.368h-2.087zm13.363 1.851h-2.86v8.517h-2.086v-8.517h-2.86v-1.851h7.81zm8.2 6.034h-3.888l-.835 2.483h-2.214l3.867-10.368h2.258l3.85 10.368h-2.195l-.843-2.484zm-.626-1.82l-1.324-3.899-1.312 3.898h2.636zm6.755-6.065h2.087v8.517h3.928v1.85h-6.015zm6.015.597a.71.71 0 11-1.42-.017.71.71 0 011.42.017zm-.123 0a.586.586 0 10-1.173.008.586.586 0 001.173-.008zm-.478.102l.181.259h-.146l-.177-.249h-.073v.249h-.13v-.704h.272a.209.209 0 01.23.224c0 .125-.047.196-.157.22zm-.209-.104h.136a.11.11 0 100-.22h-.136v.22z" fill="#FFF"/></g></svg>